<svg width="11" height="11" viewBox="0 0 11 11" fill="none" xmlns="http://www.w3.org/2000/svg">
<path d="M10.253 10.253C10.4485 10.0575 10.4485 9.74052 10.253 9.54504L6.01 5.303L10.2529 1.06098C10.4484 0.86553 10.4483 0.548566 10.2527 0.353231C10.0573 0.158106 9.74078 0.158218 9.54552 0.353481L5.303 4.596L1.0605 0.3535C0.865267 0.158267 0.548733 0.158267 0.3535 0.3535C0.158267 0.548733 0.158267 0.865267 0.3535 1.0605L4.596 5.303L0.353481 9.54552C0.158218 9.74078 0.158106 10.0573 0.353231 10.2527C0.548566 10.4483 0.865529 10.4484 1.06098 10.2529L5.303 6.01L9.54504 10.253C9.74052 10.4485 10.0575 10.4485 10.253 10.253Z" fill="#838691"/>
</svg>
