<svg width="14" height="14" viewBox="0 0 14 14" fill="none" xmlns="http://www.w3.org/2000/svg">
<path d="M13.853 13.1465L11.006 10.3025C11.937 9.21149 12.5 7.79749 12.5 6.25049C12.5 2.79849 9.702 0.000488281 6.25 0.000488281C2.798 0.000488281 0 2.79849 0 6.25049C0 9.70249 2.798 12.5005 6.25 12.5005C7.795 12.5005 9.208 11.9385 10.299 11.0095L13.147 13.8535C13.245 13.9515 13.372 13.9995 13.5 13.9995C13.628 13.9995 13.756 13.9505 13.854 13.8525C14.049 13.6585 14.049 13.3415 13.853 13.1465ZM1 6.25049C1 3.35549 3.355 1.00049 6.25 1.00049C9.145 1.00049 11.5 3.35549 11.5 6.25049C11.5 9.14549 9.145 11.5005 6.25 11.5005C3.355 11.5005 1 9.14549 1 6.25049Z" fill="#838691"/>
</svg>
