<svg width="23" height="24" viewBox="0 0 23 24" fill="none" xmlns="http://www.w3.org/2000/svg">
<path fill-rule="evenodd" clip-rule="evenodd" d="M16.0387 1.45312C15.3085 2.40625 14.9435 3.43749 14.9435 4.54688V17.25C14.9435 17.5781 14.9276 17.9141 14.8958 18.2578C14.8641 18.6016 14.8165 18.9453 14.753 19.2891C15.5625 19.1328 16.3046 18.8945 16.9792 18.5742C17.6538 18.2539 18.2609 17.8438 18.8006 17.3438C19.3403 16.8437 19.8085 16.2539 20.2054 15.5742C20.6022 14.8945 20.9355 14.125 21.2054 13.2656L21.7292 11.5781V0.0234375C18.6657 0.0234375 16.7689 0.499995 16.0387 1.45312ZM5.49107 1.33594H4.13393V2.64844H5.49107V1.33594ZM6.84821 3.32812H5.49107V4.64062H6.84821V3.32812ZM5.49107 4.99219H4.13393V6.30469H5.49107V4.99219ZM4.13393 6.96094H2.77679V8.29688H4.13393V6.96094ZM1.41964 0H0.0625V1.33594H1.41964V0ZM7.47917 20.2266C7.05853 19.3828 6.84821 18.3906 6.84821 17.25V7.61719H5.49107V12.5391H4.13393V9.60938H2.77679V10.9219H1.41964V3.65625H0.0625V14.5312C0.0625 15.875 0.308529 17.125 0.800595 18.2812C1.29266 19.4375 2.00297 20.4414 2.93155 21.293C3.86012 22.1445 4.99503 22.8086 6.33631 23.2852C7.67759 23.7617 9.19741 24 10.8958 24L10.2649 23.5898C9.84424 23.3164 9.37996 22.8984 8.87202 22.3359C8.36408 21.7734 7.8998 21.0703 7.47917 20.2266ZM15.3006 19.7109C14.253 19.9453 13.1022 20.0391 11.8482 19.9922C10.9434 19.9453 10.1379 19.8164 9.43155 19.6055C8.72519 19.3945 8.10219 19.125 7.5625 18.7969C7.92758 20.3594 8.60218 21.5273 9.58631 22.3008C10.5704 23.0742 11.0942 23.4844 11.1577 23.5312L11.9673 23.9531C13.507 23.8594 14.88 23.5547 16.0863 23.0391C17.2927 22.5234 18.3165 21.8477 19.1577 21.0117C19.999 20.1758 20.6379 19.207 21.0744 18.1055C21.5109 17.0039 21.7292 15.8125 21.7292 14.5312V13.4062C21.3641 14.5938 20.88 15.6133 20.2768 16.4648C19.6736 17.3164 18.9554 18.0117 18.122 18.5508C17.2887 19.0898 16.3482 19.4766 15.3006 19.7109ZM4.11012 2.67188H2.77679V3.98438H4.11012V2.67188ZM22.462 0C22.5888 0 22.6997 0.0452894 22.7948 0.13587C22.8899 0.22645 22.9375 0.335144 22.9375 0.461957C22.9375 0.597827 22.8899 0.71105 22.7948 0.80163C22.6997 0.892211 22.5888 0.9375 22.462 0.9375C22.3351 0.9375 22.2264 0.892211 22.1359 0.80163C22.0453 0.71105 22 0.597827 22 0.461957C22 0.335144 22.0453 0.22645 22.1359 0.13587C22.2264 0.0452894 22.3351 0 22.462 0ZM22.462 0.869565C22.5707 0.869565 22.6635 0.831069 22.7405 0.754076C22.8175 0.677083 22.856 0.579711 22.856 0.461957C22.856 0.35326 22.8175 0.260417 22.7405 0.183424C22.6635 0.106431 22.5707 0.0679348 22.462 0.0679348C22.3533 0.0679348 22.2627 0.106431 22.1902 0.183424C22.1178 0.260417 22.0815 0.35326 22.0815 0.461957C22.0815 0.579711 22.1178 0.677083 22.1902 0.754076C22.2627 0.831069 22.3533 0.869565 22.462 0.869565ZM22.6454 0.455163C22.668 0.432518 22.6793 0.398551 22.6793 0.353261C22.6793 0.298913 22.6658 0.258152 22.6386 0.230978C22.6114 0.203804 22.5616 0.190217 22.4891 0.190217H22.2853V0.733696H22.3668V0.502717H22.462L22.6114 0.733696H22.6929L22.5435 0.502717C22.5888 0.493659 22.6227 0.477808 22.6454 0.455163ZM22.462 0.434783C22.4982 0.434783 22.5299 0.430254 22.5571 0.421196C22.5842 0.412138 22.5978 0.389493 22.5978 0.353261C22.5978 0.317029 22.5865 0.29212 22.5639 0.278533C22.5412 0.264946 22.5118 0.258152 22.4755 0.258152H22.3668V0.434783H22.462Z" fill="url(#paint0_linear_20_31147)"/>
<defs>
<linearGradient id="paint0_linear_20_31147" x1="7.61889" y1="36.8963" x2="24.0812" y2="16.673" gradientUnits="userSpaceOnUse">
<stop stop-color="#C2C4CE"/>
<stop offset="0.39697" stop-color="#D6D9E2"/>
<stop offset="1" stop-color="white"/>
</linearGradient>
</defs>
</svg>
