<svg width="27" height="28" viewBox="0 0 27 28" fill="none" xmlns="http://www.w3.org/2000/svg">
<path fill-rule="evenodd" clip-rule="evenodd" d="M18.6701 1.69531C17.8183 2.8073 17.3924 4.01041 17.3924 5.30469V20.125C17.3924 20.5078 17.3738 20.8997 17.3368 21.3008C17.2998 21.7018 17.2442 22.1029 17.1701 22.5039C18.1146 22.3216 18.9803 22.0436 19.7674 21.6699C20.5544 21.2962 21.2627 20.8177 21.8924 20.2344C22.522 19.651 23.0683 18.9629 23.5313 18.1699C23.9942 17.3769 24.3831 16.4792 24.6979 15.4766L25.309 13.5078V0.0273438C21.7349 0.0273438 19.522 0.583328 18.6701 1.69531ZM6.36458 1.55859H4.78125V3.08984H6.36458V1.55859ZM7.94792 3.88281H6.36458V5.41406H7.94792V3.88281ZM6.36458 5.82422H4.78125V7.35547H6.36458V5.82422ZM4.78125 8.12109H3.19792V9.67969H4.78125V8.12109ZM1.61458 0H0.03125V1.55859H1.61458V0ZM8.68403 23.5977C8.19329 22.6133 7.94792 21.4557 7.94792 20.125V8.88672H6.36458V14.6289H4.78125V11.2109H3.19792V12.7422H1.61458V4.26562H0.03125V16.9531C0.03125 18.5208 0.318284 19.9792 0.892361 21.3281C1.46644 22.6771 2.29513 23.8483 3.37847 24.8418C4.46181 25.8353 5.78587 26.61 7.35069 27.166C8.91552 27.722 10.6886 28 12.6701 28L11.934 27.5215C11.4433 27.2025 10.9016 26.7148 10.309 26.0586C9.71643 25.4023 9.17477 24.582 8.68403 23.5977ZM17.809 22.9961C16.5868 23.2695 15.2442 23.3789 13.7813 23.3242C12.7257 23.2695 11.7859 23.1191 10.9618 22.873C10.1377 22.627 9.41088 22.3125 8.78125 21.9297C9.20718 23.7526 9.99421 25.1152 11.1424 26.0176C12.2905 26.9199 12.9016 27.3984 12.9757 27.4531L13.9201 27.9453C15.7164 27.8359 17.3183 27.4805 18.7257 26.8789C20.1331 26.2773 21.3275 25.4889 22.309 24.5137C23.2905 23.5384 24.0359 22.4082 24.5451 21.123C25.0544 19.8379 25.309 18.4479 25.309 16.9531V15.6406C24.8831 17.026 24.3183 18.2155 23.6146 19.209C22.9109 20.2025 22.0729 21.0137 21.1007 21.6426C20.1285 22.2715 19.0313 22.7227 17.809 22.9961ZM4.75347 3.11719H3.19792V4.64844H4.75347V3.11719ZM26.1639 0C26.3119 0 26.4413 0.0528376 26.5523 0.158514C26.6633 0.264191 26.7188 0.391002 26.7188 0.538949C26.7188 0.697465 26.6633 0.829559 26.5523 0.935236C26.4413 1.04091 26.3119 1.09375 26.1639 1.09375C26.016 1.09375 25.8892 1.04091 25.7835 0.935236C25.6778 0.829559 25.625 0.697465 25.625 0.538949C25.625 0.391002 25.6778 0.264191 25.7835 0.158514C25.8892 0.0528376 26.016 0 26.1639 0ZM26.1639 1.01449C26.2908 1.01449 26.3991 0.969581 26.4889 0.879755C26.5787 0.78993 26.6236 0.676329 26.6236 0.538949C26.6236 0.412137 26.5787 0.30382 26.4889 0.213995C26.3991 0.124169 26.2908 0.0792572 26.1639 0.0792572C26.0371 0.0792572 25.9315 0.124169 25.8469 0.213995C25.7624 0.30382 25.7201 0.412137 25.7201 0.538949C25.7201 0.676329 25.7624 0.78993 25.8469 0.879755C25.9315 0.969581 26.0371 1.01449 26.1639 1.01449ZM26.3779 0.531024C26.4044 0.504604 26.4176 0.464976 26.4176 0.412138C26.4176 0.348732 26.4017 0.301178 26.37 0.269475C26.3383 0.237772 26.2802 0.22192 26.1957 0.22192H25.9579V0.855978H26.053V0.586504H26.1639L26.3383 0.855978H26.4334L26.2591 0.586504C26.3119 0.575936 26.3515 0.557443 26.3779 0.531024ZM26.1639 0.507246C26.2062 0.507246 26.2432 0.501963 26.2749 0.491395C26.3066 0.480827 26.3225 0.454408 26.3225 0.412138C26.3225 0.369867 26.3093 0.340806 26.2828 0.324955C26.2564 0.309103 26.2221 0.301178 26.1798 0.301178H26.053V0.507246H26.1639Z" fill="url(#paint0_linear_16_29336)"/>
<defs>
<linearGradient id="paint0_linear_16_29336" x1="8.84704" y1="43.0457" x2="28.053" y2="19.4519" gradientUnits="userSpaceOnUse">
<stop stop-color="#C2C4CE"/>
<stop offset="0.39697" stop-color="#D6D9E2"/>
<stop offset="1" stop-color="white"/>
</linearGradient>
</defs>
</svg>
